# Blender v2.79 (sub 0) OBJ File: 'test.obj'
# www.blender.org
mtllib cube.mtl
o cube

v 1.000000 -1.000000 -1.000000      1
v 1.000000 -1.000000 1.000000       2
v -1.000000 -1.000000 1.000000      3
v -1.000000 -1.000000 -1.000000     4
v 1.000000 1.000000 -1.000000       5
v 1.000000 1.000000 1.000000        6
v -1.000000 1.000000 1.000000       7
v -1.000000 1.000000 -1.000000      8

vt 0.000000 0.000000
vt 1.000000 1.000000
vt 1.000000 0.000000
vt 0.000000 1.000000
vt 1.000000 0.000000
vt 0.000000 0.000000
vt 1.000000 1.000000
vt 0.000000 1.000000
vt 0.000000 1.000000
vt 1.000000 0.000000
vt 0.000000 0.000000
vt 1.000000 1.000000
vn 0.5773 -0.5773 0.5773
vn -0.5773 -0.5773 -0.5773
vn 0.5773 -0.5773 -0.5773
vn -0.5773 0.5773 -0.5773
vn 0.5773 0.5773 0.5773
vn 0.5773 0.5773 -0.5773
vn -0.5773 -0.5773 0.5773
vn -0.5773 0.5773 0.5773
g cube
usemtl cube
f 2/1/1 4/2/2 1/3/3
f 8/4/4 6/5/5 5/6/6
f 5/7/6 2/1/1 1/8/3
f 6/5/5 3/9/7 2/1/1
f 3/9/7 8/10/4 4/11/2
f 1/8/3 8/10/4 5/7/6
f 2/1/1 3/9/7 4/2/2
f 8/4/4 7/12/8 6/5/5
f 5/7/6 6/5/5 2/1/1
f 6/5/5 7/12/8 3/9/7
f 3/9/7 7/12/8 8/10/4
f 1/8/3 4/11/2 8/10/4
